REM MD5 51e45b4a6e5b4492fbacfd01895a7008
FILE "Eidos Demo CD (USA) (Rev 1).bin" BINARY
  TRACK 01 MODE2/2352
    INDEX 01 00:00:00
  TRACK 02 AUDIO
    INDEX 00 17:04:64
    INDEX 01 17:06:64
  TRACK 03 AUDIO
    INDEX 00 19:32:58
    INDEX 01 19:34:58
  TRACK 04 AUDIO
    INDEX 00 19:55:38
    INDEX 01 19:57:38
  TRACK 05 AUDIO
    INDEX 00 22:32:16
    INDEX 01 22:34:16
  TRACK 06 AUDIO
    INDEX 00 24:53:34
    INDEX 01 24:55:34
REM LEADOUT 25:01:30
